<svg id="logo_wrap" data-name="logo wrap" xmlns="http://www.w3.org/2000/svg" viewBox="0 0 529.5 129.8"><defs><style>.cls-1{fill:#3b3043;}.cls-2{fill:#a23eff;}.cls-3{fill:#c37aff;}.cls-4{fill:#e1b8ff;}.cls-5{fill:#d69eff;}</style></defs><title>logo</title><g id="logo"><path class="cls-1" d="M201.8,81.2a31,31,0,0,1-5.7,3,43.63,43.63,0,0,1-6,2.3,43.09,43.09,0,0,1-37.5-5.8,89.29,89.29,0,0,1-10.2-8.2,26,26,0,0,0,11.4-1,52.92,52.92,0,0,0,14.3-6,32.8,32.8,0,0,0,10.4-9.9A26.09,26.09,0,0,0,182.3,42a18.61,18.61,0,0,0-3.1-10.3,21.33,21.33,0,0,0-9-7.3,36.49,36.49,0,0,0-6.4-2c-.5-10.7-7.2-19.6-23.5-19.6-3.1,0-9,.2-11.6.2H128V31.9a45.43,45.43,0,0,0-8.4,9.1,16.41,16.41,0,0,0-1.6,2.9c-.2.2.2.4.3.2a66.6,66.6,0,0,1,8.4-9.9,10.59,10.59,0,0,1,1.2-1V44.9h.9c3.8,0,8.5.1,11,.1a35.53,35.53,0,0,0,4.6-.3c-2.6,3.3-5,6.7-7.3,10.2a133.09,133.09,0,0,0-13,25.5c-1,2.5-1.8,5-2.6,7.5a72.73,72.73,0,0,0-2.2,8,.56.56,0,0,0,.6.5c.2,0,.3-.1.4-.3,1.4-4.4,2.7-8.9,4.3-13.4a117.23,117.23,0,0,1,5.6-13.1,140.81,140.81,0,0,1,14.8-24l.8-1c11.9-2.2,17.9-10.7,17.9-20.8.7.2,1.3.3,2,.5a24.06,24.06,0,0,1,10.5,6,17,17,0,0,1,4.7,9.2,23.48,23.48,0,0,1-1.8,12.8,27.44,27.44,0,0,1-8.8,10.6,47.11,47.11,0,0,1-12.8,6.6,62.1,62.1,0,0,1-7.4,2,21.1,21.1,0,0,1-7.1.3,12.13,12.13,0,0,1-3.2-1.1.74.74,0,0,0-.9.1.76.76,0,0,0,.1.9c7.1,6.5,14.6,13,23.9,16.1a44.83,44.83,0,0,0,32.8-1.7,26.85,26.85,0,0,0,3.3-1.8,29.55,29.55,0,0,0,3.1-2.2C202.4,81.4,202.1,80.9,201.8,81.2ZM135.4,9.7h4.8c9.1,0,14.8,4.5,15.7,11.8a39.43,39.43,0,0,0-15.2,2.8,49.67,49.67,0,0,0-5.2,2.5Zm20.7,13.6c0,8.8-5.9,14.6-15.9,14.6-1,0-2.7,0-4.7-.1V27.9c.7-.4,1.4-.8,2.2-1.2a38.67,38.67,0,0,1,13.3-4,43.49,43.49,0,0,1,5.1-.2v.8Z"/><path class="cls-1" d="M247.4,67.9a40.93,40.93,0,0,0-4.6,2.5,38,38,0,0,1-4.7,1.8,19.62,19.62,0,0,1-7.6.6,3.85,3.85,0,0,1-2.6-1.3,2.89,2.89,0,0,1,0-3.1,7.18,7.18,0,0,0,8.5-1.1c1.2-1.1,1.6-3.3-.5-3.8a9.18,9.18,0,0,0-6,1.5,7.61,7.61,0,0,0-3.7,4,3.68,3.68,0,0,0,1.1,3.7c2,1.7,5.3,1.5,7.7,1.2a18,18,0,0,0,6.4-1.8,18.19,18.19,0,0,0,3.1-1.6,12.88,12.88,0,0,0,3-2.2c.2-.1.1-.3-.1-.4Zm-19.2,0a11.16,11.16,0,0,1,4-2.8,5.42,5.42,0,0,1,2.5-.6,3.4,3.4,0,0,1,1.4.2c.5.2.4.6.2,1a5.53,5.53,0,0,1-4,2.6,8,8,0,0,1-4.1-.4Z"/><path class="cls-1" d="M286.5,63.1a14,14,0,0,0-3.5,1A29,29,0,0,0,270.7,74c1.4-2.8,2.9-5.6,4.5-8.3a123.17,123.17,0,0,1,6.9-10.3c.2-.2-.2-.6-.4-.3a94,94,0,0,0-11.9,18.7c-1.3,2.6-2.5,5.3-3.7,8-1,2.2-2,4.4-2.9,6.5-2,5.4-3.7,10.9-5.4,16.4a12.66,12.66,0,0,1-.6,1.8c-.3.6.7.7.9.2,2.2-7.1,4.6-14.2,7.3-21,.6-1.5,1.2-2.9,1.8-4.4.6-1,1.1-2.2,1.8-3.2a33.21,33.21,0,0,1,9.4-10.7,22.79,22.79,0,0,1,6-3.1,13.23,13.23,0,0,1,3.3-.8c.3,0,.6,0,.6.5a1.91,1.91,0,0,1-.5,1,17,17,0,0,1-1,1.4,19.24,19.24,0,0,1-6,4.6c-1.4.7-4.8,2.2-5.7,0-.2-.3-.7,0-.6.3.6,2,3,2,4.7,1.5a18.35,18.35,0,0,0,6.2-3.6,21.6,21.6,0,0,0,2.5-2.7c.6-.7,1.8-2,1.2-3.1S287.4,62.9,286.5,63.1Z"/><path class="cls-1" d="M321.1,40.7a24.41,24.41,0,0,0,2.8-4.3l.4-1v9.3h7.4V2.9h-6.9L311,22.4,296.8,2.9h-7.4V44.7h7.3v-30L310,33h1.1l13.2-18.5V30.8a3.6,3.6,0,0,0-2.3.2,35.06,35.06,0,0,0-4,2.7,72.39,72.39,0,0,0-7.3,6.2,73.92,73.92,0,0,0-11.9,15.3A67.56,67.56,0,0,0,294,65.4a29.84,29.84,0,0,0-2,12.2.5.5,0,0,0,1,0,36.55,36.55,0,0,1,1.8-10.3,59.19,59.19,0,0,1,3.8-9l.3-.6a53.16,53.16,0,0,0,14.7-9.1A50.89,50.89,0,0,0,321.1,40.7ZM299.8,56.8h-.4a68.64,68.64,0,0,1,9.5-13.3,77.57,77.57,0,0,1,6.5-6.3c1.2-1,2.4-2,3.7-2.9a18.5,18.5,0,0,1,3.7-2.5,3.55,3.55,0,0,1,1-.2c.6.2.5.6.4,1a7.94,7.94,0,0,1-.6,2.2,15.58,15.58,0,0,1-2.5,4.3,52.85,52.85,0,0,1-6.7,7.5,50.38,50.38,0,0,1-6.8,5.4A62.85,62.85,0,0,1,299.8,56.8Z"/><path class="cls-1" d="M363.5,68.5c-2.2,1-4.4,2.1-6.5,3.3s-4.1,2.8-6.1,4.3a84.16,84.16,0,0,0-7.2,6.2,85.85,85.85,0,0,1,6.4-16.4c.6-1,1.2-2,1.8-3.1a.68.68,0,0,0-.4-.8.66.66,0,0,0-.6.1,41.43,41.43,0,0,1-11.4,12.2,10.14,10.14,0,0,1-3.2,1.8c-.9.2-2.1.4-2.6-.5a2.33,2.33,0,0,1,0-2,7.22,7.22,0,0,1,.9-2,23.29,23.29,0,0,1,2-3.4,39,39,0,0,1,3.1-4,12.88,12.88,0,0,1,1.7-1.6l1.8-1.8a.22.22,0,0,0-.2-.2h0a7.81,7.81,0,0,0-2,1.1,9.34,9.34,0,0,0-1.8,1.6,34.68,34.68,0,0,0-3,3.7,15.26,15.26,0,0,0-1.1,1.6h0c-1.1.4-2.1.8-3.2,1.3a25.21,25.21,0,0,1-3.3,1.3,26.18,26.18,0,0,1-6.7,1.6c-1.4.2-4.9.5-4.9-1.8a7.68,7.68,0,0,1,2.6-5.1c.1-.1.3-.2.3-.3.6-.5-.2-1.3-.9-.8V65a17.41,17.41,0,0,0-1.4,1.2V66c-1.4-2.5-4.6-2-7-1.5a12.38,12.38,0,0,0-6.1,3.4c-1.5,1.6-2.8,5.1.2,5.8a9.13,9.13,0,0,0,4-.4,17.25,17.25,0,0,0,3.7-1.6c1.3-.8,2.5-1.7,3.7-2.6-.7,1.8-.6,3.5,1.2,4.4a10.35,10.35,0,0,0,5.5.4,29.28,29.28,0,0,0,6-1.5c1-.4,2-.9,3.1-1.3a24,24,0,0,0,2.3-1.1c-.2.3-.4.7-.6,1a7.8,7.8,0,0,0-1.3,4.4c.5,2.7,4,2,5.6,1.1a29.22,29.22,0,0,0,3.7-2.4c1.2-1,2.4-2,3.5-3.1l2-2a116.24,116.24,0,0,0-5.3,15c-.7.7-1.5,1.5-2.2,2.3A110,110,0,0,0,322,111a57.54,57.54,0,0,0-3.3,7.7,19.4,19.4,0,0,0-1.1,7.2,3.44,3.44,0,0,0,1.3,2.5,3.7,3.7,0,0,0,2.9.6,8.93,8.93,0,0,0,5.5-4.2,63.23,63.23,0,0,0,7.2-14.2c2-5,3.8-10.2,5.3-15.4,1-3.6,2-7.2,3.1-10.8a87.92,87.92,0,0,1,17.8-13.7c1-.6,2-1.2,2.9-1.7C364.1,68.8,363.8,68.3,363.5,68.5Zm-55.9,4c-1,.2-2.6.6-3.3-.3s.2-2.2.7-2.9a9.68,9.68,0,0,1,4.8-3.4,17.73,17.73,0,0,1,4-.8,4.1,4.1,0,0,1,3.6,1.3c0,.2.2.2.2,0a24,24,0,0,1-10,6.1Zm32.7,17.2c-1.4,4.8-2.8,9.7-4.5,14.5-.9,2.6-2,5.2-3,7.7s-2,4.7-3.1,7a33.15,33.15,0,0,1-4.1,6.4,9.66,9.66,0,0,1-2.7,2.2,3.19,3.19,0,0,1-3,0,3.11,3.11,0,0,1-.9-2.6,13.45,13.45,0,0,1,.5-3.5,36,36,0,0,1,2.7-7.8,97.62,97.62,0,0,1,16.3-24.3c1-1,2-2.2,2.9-3.1-.4,1.1-.7,2.3-1.1,3.5Z"/><rect class="cls-1" x="191.1" y="2.9" width="7.3" height="41.8"/><path class="cls-1" d="M265.2,44.7,247.6,2.8h-6.4L223.5,44.7h5.3a77.14,77.14,0,0,0-7.5,10.5,78.27,78.27,0,0,0-4.5,9.2A86.71,86.71,0,0,0,203.9,70a32.9,32.9,0,0,1-6.9,2.3,13.63,13.63,0,0,1-4.5.2,16.83,16.83,0,0,0,2.9-2.4,10.37,10.37,0,0,0,2.3-3.3,2.42,2.42,0,0,0-1.4-3,3.89,3.89,0,0,0-2.8-.2,12,12,0,0,0-6.1,2.6c-1.8,1.4-4.5,4.4-2.9,6.8s4.5,1.3,6.7.3a16.71,16.71,0,0,0,8.3-.6c6-1.7,11.3-5.3,17.1-7.6v.2a29.84,29.84,0,0,0-2,12.2.5.5,0,0,0,1,0,36.55,36.55,0,0,1,1.8-10.3,59.19,59.19,0,0,1,3.8-9l.3-.6a52.64,52.64,0,0,0,14.6-9.1,57.55,57.55,0,0,0,7.6-8,24.41,24.41,0,0,0,2.8-4.3c.3-.7.6-1.5.9-2.2v-.2h5.8l4.4,10.7ZM187,73.3a2.74,2.74,0,0,1-1.8-1,2.33,2.33,0,0,1,0-2,9.61,9.61,0,0,1,2.5-3.2,7.63,7.63,0,0,1,1.1-.8,4.87,4.87,0,0,0-1.1,1.8,3.68,3.68,0,0,0,2,4.4A4.3,4.3,0,0,1,187,73.3Zm4-1.2a4.67,4.67,0,0,1-1-.5,2.85,2.85,0,0,1-1.4-2.5,3.16,3.16,0,0,1,1.3-2.2,6.94,6.94,0,0,1,5.6-2.4,1.59,1.59,0,0,1,1.2.9c.3.7-.2,1.4-.5,2a20.41,20.41,0,0,1-2.3,2.7,10.78,10.78,0,0,1-2.9,2ZM235.2,34h5q-3.6,2.85-6.9,6l-.7.7Zm10.6.9a15.58,15.58,0,0,1-2.5,4.3,52.85,52.85,0,0,1-6.7,7.5,50.38,50.38,0,0,1-6.8,5.4,59.84,59.84,0,0,1-7.6,4.7h-.4a72.74,72.74,0,0,1,8.6-12.2h.5l.4-1h0a77.57,77.57,0,0,1,6.5-6.3c1.2-1,2.4-2,3.7-2.9l.5-.4h4.1a1.61,1.61,0,0,1-.3.9ZM238,27.1l6.1-14.9,6.1,14.9Z"/><path class="cls-1" d="M379.6,2.3a20.93,20.93,0,0,0-21.7,20.2v1.3c0,13,9.3,21.5,21.7,21.5a21.08,21.08,0,0,0,21.8-20.2V23.7C401.4,10.8,392.1,2.3,379.6,2.3Zm0,36.2a14.09,14.09,0,0,1-13.9-14.3h0v-.4c0-8.6,6-14.7,13.9-14.7A13.87,13.87,0,0,1,393.5,23v.8C393.7,32,388.4,38.5,379.6,38.5Z"/><polygon class="cls-1" points="456.6 32 433.6 2.9 427.8 2.9 427.8 44.7 434.7 44.7 434.7 15.8 457.6 44.7 463.5 44.7 463.5 2.9 456.6 2.9 456.6 32"/><path class="cls-1" d="M505.2,2.7c-3,0-9,.2-11.5.2h-.8V44.7h.8c3.8,0,8.5.1,11,.1,15.9,0,23.9-9.7,23.9-21.4C528.7,12.4,521.9,2.7,505.2,2.7ZM505,37.9c-1,0-2.7,0-4.7-.1V9.7c1.7-.1,3.1-.2,4.8-.2,9.9,0,15.9,5.4,15.9,13.8C520.9,32.2,515.1,37.9,505,37.9Z"/></g><path class="cls-2" d="M12.4,26.2l12-15c4.7-6,4.6-6,9-6H75.3c4.4,0,4.3,0,9,6l12,15c8.1,9,7.9,9,0,18l-33,32.9c-2.9,3-4.4,6-9,6s-6.1-3-9-6L12.4,44.2C4.4,35.2,4.3,35.2,12.4,26.2Z"/><path class="cls-3" d="M78.2,41.2H30.3L50.9,82.4a8.55,8.55,0,0,0,3.4.7,6.46,6.46,0,0,0,3.3-.7Zm23.9-6v-.8c-.4-2-2.4-4.2-5.9-8.2l-12-15c-4.7-6-4.6-6-9-6h-21l24,35.9C78.5,40.9,102.1,35.2,102.1,35.2ZM24.3,11.3l-12,15c-4,4.5-6,6.7-6,9,.2.1,23.7,5.7,24,6l24-35.9h-21C28.9,5.3,29.1,5.3,24.3,11.3Z"/><path class="cls-4" d="M30.3,41.2l24-35.9,24,35.9Z"/><path class="cls-5" d="M81,7.3c-1.8-2-2.7-2-5.8-2h-21l24,35.9Zm-53.4.1,2.8,33.8,24-35.9h-21C30.3,5.3,29.4,5.3,27.6,7.4Z"/></svg>