<svg id="Capa_1" data-name="Capa 1" xmlns="http://www.w3.org/2000/svg" viewBox="0 0 512 512"><defs><style>.cls-1{fill:#fff;}.cls-2{fill:#ff4d56;}</style></defs><title>play</title><circle class="cls-1" cx="256" cy="256" r="142"/><path class="cls-2" d="M256,0C114.6,0,0,114.6,0,256S114.6,512,256,512,512,397.4,512,256,397.4,0,256,0Zm88.5,269.6-128,80A16.08,16.08,0,0,1,208,352a16.76,16.76,0,0,1-7.8-2,15.94,15.94,0,0,1-8.2-14V176a16.14,16.14,0,0,1,8.2-14,15.94,15.94,0,0,1,16.2.4l128,80a16.14,16.14,0,0,1,.1,27.2Z"/></svg>