<svg id="Layer_1" data-name="Layer 1" xmlns="http://www.w3.org/2000/svg" viewBox="0 0 768 216"><defs><style>.cls-1{fill:#606060;}</style></defs><title>socialclub</title><path class="cls-1" d="M0,180c.65-1.49,1.35-2.95,1.93-4.46C7.51,161.11,22.2,155.8,35.29,164c7.05,4.39,13.65,9.54,20.24,14.62,19.48,15,41.08,10.27,56.37.27a37.83,37.83,0,0,0,10.33-10.61c5.68-8.52,4.53-17.14-2.53-24.59-8.76-9.23-20-12.76-32.3-13.76A99.47,99.47,0,0,1,74.07,128c-20.54-4.52-31.14-22.58-25.28-42.82C55.51,62,81.42,44.73,106.06,47.67a76.67,76.67,0,0,1,21.61,5.45c15.75,7,23.1,20.33,25.28,36.91.35,2.64.07,5.31-3.22,5.72s-4.17-1.9-4.62-4.66c-3.52-21.84-16.47-33.69-38.6-35.39-20.36-1.56-39.1,8.52-47.66,25.64-9.62,19.23.09,37.19,21.42,39.78,7.1.86,14.26,1.55,21.23,3.08a46.45,46.45,0,0,1,24.6,14.43,28.26,28.26,0,0,1,7.69,17c.62,7.21,2.63,8.87,10.27,8.31-.28-17.45,8.15-31.83,16.73-46a17.36,17.36,0,0,1,9-6.69c12.3-3.87,24.42-4.72,35.38,4.39,6.61,5.5,19.48,5.19,26.68-.35,8-6.16,16.78-8.74,26.69-6.21,8.2,2.1,11.48,8.7,8.4,16.52-1.28,3.25-2.31,6.68-4.16,9.58-.86,1.34-3.43,1.59-5.22,2.33-.64-1.83-2.1-3.82-1.77-5.46a43.34,43.34,0,0,1,3.54-9.29c1.53-3.35.17-5.11-2.94-6a19.16,19.16,0,0,0-16.28,2.51c-12.8,8.63-19.78,21.25-23.54,35.88-1,3.74.67,6.27,4.35,7.14a78.12,78.12,0,0,0,38.52-.18c7.07-1.88,10.81-8,13.5-14.49,4.39-10.61,8.69-21.25,13-31.88.38-.92.5-2.22,1.18-2.69a47.26,47.26,0,0,1,5.51-2.89c.62,2,2.23,4.32,1.68,5.9-2.64,7.52-5.86,14.84-8.88,22.24-1.76,4.31-3.6,8.59-5.3,12.93-3.09,7.87.17,12.81,8.58,13,1.93,0,3.88-.21,6.05-.35-1.19-16.28,6.78-28.53,16.16-40,10-12.23,23.46-14.81,38.41-12.13,4.42.79,5.43,3.24,4.08,7.19-2.73,8-5.52,16-8.09,24.13a34.58,34.58,0,0,0-1.57,8.3c-.54,9.22,3.53,12.92,12.69,11.94,2.93-.32,4.17-1.64,4.65-4.71a91.19,91.19,0,0,1,3.83-16.9c9.18-25.51,18.69-50.9,28.09-76.34.46-1.24.57-2.94,1.46-3.64,1.49-1.15,3.49-1.67,5.27-2.45.71,1.68,1.75,3.31,2,5.06.18,1.17-.69,2.52-1.15,3.77q-14.22,38.37-28.43,76.74c-7.85,21.21-.78,34.09,21.59,37.72,21.86,3.54,41.27-1.86,57-18.22,2.49-2.59,3-4.82,1.78-8.33a54.61,54.61,0,0,1-.63-33.43c6.53-22.44,17-42.66,34.11-58.95,11-10.47,23.82-17.33,39.5-16.07,20.81,1.69,34.8,14.69,40.15,36.52.67,2.74,1.48,5.61,1.25,8.34-.15,1.84-2,3.53-3.15,5.29-1.54-1.41-3.86-2.54-4.48-4.28-1.49-4.19-1.8-8.81-3.28-13-8.08-23-30.75-31.7-52.1-19.92a56.51,56.51,0,0,0-12,8.82,117,117,0,0,0-33.1,59.91c-6.13,28.09,13.53,53.33,42.17,55.84,16.67,1.46,30.84-3.58,42.84-15.05a85.7,85.7,0,0,0,21-30.63c9.65-24.44,19.43-48.84,29.16-73.25.43-1.09.83-2.18,1.25-3.26,1.08-2.78,2.79-4.9,6-3.51,2.93,1.27,2.65,3.76,1.59,6.37-3.56,8.79-7,17.62-10.54,26.42q-11,27.58-22,55.16c-4.44,11.14,1,18.14,12.92,16.79,1.32-.15,2.6-.57,3.91-.75,4.88-.67,8.1-2.54,6.84-8.34a8.66,8.66,0,0,1,.41-4.44c4-11.44,8-22.89,12.41-34.18.58-1.49,3.73-3.18,5.25-2.83,2.92.66,3,3.27,1.93,6.07-3.92,10.41-8,20.8-11.32,31.4-2.37,7.53.16,10.85,7.84,12.27,9.38,1.74,16.66-1.71,21.12-11.12,5.12-10.81,9.52-22,14.29-33,1.26-2.91,1.94-7.49,6.47-5.77,4.92,1.88,2.15,5.82.9,8.9q-5.91,14.57-12.05,29c-1.17,2.76-2.38,5.86.56,7.6,2.6,1.54,6.3,2.83,9,2.19,6.27-1.47,9.72-6.77,12.19-12.36,2.95-6.69,5.59-13.53,8.12-20.39,7.78-21.06,15.44-42.17,23.14-63.26.34-.94.41-2.23,1.08-2.75a47.9,47.9,0,0,1,5.32-3.26c.75,1.91,2.5,4.09,2.08,5.69-1.44,5.45-3.63,10.69-5.55,16C694,90.1,690.65,99.28,687.5,108c8,0,15.81-.88,23.36.2,13,1.85,18.45,10.75,15.38,23.41-1.4,5.79-3.18,11.49-5.17,18.57,8.9-.54,17.59-.12,25.83-1.84,7.53-1.57,10.16-8.72,11.1-15.74a160.05,160.05,0,0,0,1-17.94c.35-15.49.52-31,.84-46.48.42-20.45-11-32.22-31.36-32.22Q559.74,36,391,35.92c-3.13,0-8.05,1.66-8-3.9s4.9-3.88,8.09-3.88q168-.09,336-.05c22.72,0,33.94,8.35,40.41,30.06A3.6,3.6,0,0,0,768,59V86c-.25,2.47-.68,4.94-.72,7.41-.2,10.66,0,21.34-.53,32a58.48,58.48,0,0,1-2.55,15.17c-3.56,11-11.56,16.75-23.17,17.14-6.33.21-12.67.25-19,0-3.67-.15-6.1.76-8.16,4.09-3.71,6-9.09,10.45-16.09,11.83-13.41,2.63-26.5,2.87-36.71-8.46-11.42,6.76-16.85,6.46-26.88-1.48-7.28,6.76-16.12,10.3-25.6,7.18a28,28,0,0,0-20.81.62,14.29,14.29,0,0,1-3.44.54c-9.19,1.32-16.86-.86-21.79-9.42-.1-.19-.59-.15-1.07-.25C548.76,179,533.61,192,511.4,193.12c-21.83,1.1-40.18-6-53.37-24.66-13,14-28.6,22.06-47.25,22.86-19.23.83-37.6-1.2-48.28-20.81-10.52,1.51-20.72,2-26.32-10.11-1.69,1.6-3,2.89-4.33,4.08a32.76,32.76,0,0,1-26.33,8.24c-3.6-.41-7.29-1-10.86-.65-8.85.78-17,.09-22-7.85-4.24,2.2-7.84,5.1-11.89,6-13.77,3-27.74,3.84-41.51-.14-8.91-2.58-11.78-6.84-10.09-16,1.13-6.13,3.61-12,5.82-17.91,1-2.74,2.83-5.18,4.53-8.2l-11.34-1.8c-5.26,11.08-9.71,22-15.49,32.27-7.68,13.59-21.91,18.6-36.88,14.24a19.11,19.11,0,0,0-4.33-.92c-6.81-.35-13.62-.57-21.07-.87C120,188.18,102.69,195,82.28,196c-12.15.59-22.34-4.39-31.87-11.21-6.63-4.75-13-9.91-19.86-14.28-7.37-4.69-15.09-2.47-19.64,5-3.17,5.22-3.66,10.66-.66,16.13C16.47,203,26.12,208,39,208q342.2-.09,684.4-.05c1.17,0,2.33,0,3.5,0,14.65-.49,25.58-10.12,27.64-24.6a87,87,0,0,0,.4-11c0-2.7.39-5.24,3.82-5.27,3.64,0,4.07,2.58,4.16,5.51.78,24.23-7.1,35.39-30.53,43.09-.14.05-.25.22-.37.33H31c-15.47-3.64-26-12.75-31-28Zm686-12.61c10.24.08,18.65-3.57,23-13a204.89,204.89,0,0,0,9.83-27c1.56-5.19-1-8.75-6.51-10.64-8.2-2.84-16.54-2.66-24.18,1.35a18.21,18.21,0,0,0-7.28,8.15c-3.95,8.58-6.89,17.6-10.68,26.26-3.24,7.42-1.61,11.4,6.5,13.37C679.77,166.67,682.93,166.92,686,167.39ZM184.43,116.73c-7,0-14.51.71-18,7.35-5.34,10-9.55,20.75-13.69,31.39-1.86,4.77,0,7.42,4.74,9.27,9.55,3.73,22.06.23,27.19-8.59,4.58-7.85,8.11-16.32,12-24.59,4.42-9.52,5-13.51-10.15-14.82C185.77,116.68,185.1,116.73,184.43,116.73Zm154,2.13c-6.89.12-13.38,2.35-18.17,7a62.16,62.16,0,0,0-17,28.25c-2.39,8.6,1.28,12.24,10.21,10.65,11.5-2.06,18.22-9.71,22.44-19.85,2.73-6.57,4.77-13.42,7-20.18C344.77,119.39,344.24,118.75,338.45,118.86Z"/><path class="cls-1" d="M335,0c.94,2.67,2.62,5.33,2.64,8a81.41,81.41,0,0,1-1.58,13.86c-.74,4.38.25,6.45,5.28,6.16,7-.39,14-.12,21-.07,2.83,0,6.57-.15,6.62,3.47,0,2.11-2.28,5-4.33,6.26-8.7,5.21-17.65,10-26.61,14.77-3.37,1.8-5.35,4-5.53,8.07-.26,5.81-1,11.6-1.6,17.39a25.9,25.9,0,0,1-.77,4.91c-1.56,5.3-5.28,6.38-9.25,2.59a116.53,116.53,0,0,1-9.74-10c-3.16-3.84-6-4.63-10.54-1.87-6.37,3.88-13.17,7.09-19.91,10.34-3.06,1.48-6.59,5.26-9.76,1.29s1.23-6.64,3.21-9.42c4.35-6.1,8.84-12.1,13.55-17.93,2.37-2.94,2.22-4.93-.53-7.51a84.06,84.06,0,0,1-10.48-11.37c-1.53-2.1-2.5-5.6-1.85-8,.42-1.52,4.19-2.84,6.53-3,7-.38,14-.35,21-.06,4.78.2,8.09-1.39,11-5.24C319.3,14.93,325.75,7.54,332,0ZM283.21,34.65c.2,1,.16,1.41.33,1.6q4.51,5,9.08,10c5,5.39,5.26,9.06.95,15-2.79,3.86-5.71,7.62-8.57,11.43a71.72,71.72,0,0,0,14.22-6c6.93-3.56,9.55-3.18,15,2.28,3,3,5.94,6,9.59,9.66.7-7,1.64-12.78,1.77-18.56.16-7,3.82-10.93,9.6-13.88,6.27-3.22,12.37-6.77,18.73-10.28-.71-.63-.93-1-1.16-1-4.82-.08-9.64-.08-14.47-.18-7.1-.15-9.66-2.84-9.26-9.82.21-3.56.66-7.12,1-10.68a108.88,108.88,0,0,0-12.59,14.27,15,15,0,0,1-12.93,6.21C297.54,34.57,290.56,34.65,283.21,34.65Z"/><path class="cls-1" d="M147,28.09H252.49c1.33,0,3-.46,3.93.14,1.6,1,2.78,2.67,4.13,4.06-1.34,1.22-2.5,2.8-4.07,3.54-1.22.58-2.94.15-4.44.15Q147.6,36,43.14,36C28,36,17.1,43.44,13.63,56.48A45,45,0,0,0,12.5,67.85c0,25,.09,50,.13,75,0,1.48.2,3.23-.48,4.38s-2.41,2.57-3.65,2.55S5.57,148.31,5,147.08c-.69-1.38-.5-3.24-.5-4.9Q4.38,104,4.36,65.72c0-22.35,15.3-37.59,37.73-37.62Q94.56,28,147,28.09Z"/></svg>