<svg id="Layer_1" data-name="Layer 1" xmlns="http://www.w3.org/2000/svg" viewBox="0 0 233 233"><defs><style>.cls-1{fill:#606060;}</style></defs><title>steam</title><path class="cls-1" d="M116.5,0A116.42,116.42,0,0,0,.3,108.8a.1.1,0,0,0,.1.1h0L63,134.7a32.43,32.43,0,0,1,19.1-5.3L110.6,88v-.6a44.3,44.3,0,1,1,44.3,44.3h-1L113,160.8a32.29,32.29,0,0,1-63.8,7.9L5,150.5A116.53,116.53,0,1,0,116.5,0Z"/><path class="cls-1" d="M72.6,178.4l-14.4-6a24.84,24.84,0,0,0,45.4-1.3h0a25,25,0,0,0-13.5-32.6,24.92,24.92,0,0,0-18.4-.3l14.9,6.2a18.34,18.34,0,0,1,9.9,24A18.13,18.13,0,0,1,72.6,178.4Z"/><path class="cls-1" d="M184.2,87.3a29.5,29.5,0,1,0-29.5,29.5A29.49,29.49,0,0,0,184.2,87.3Zm-51.5,0a22.15,22.15,0,1,1,22.1,22.2A22.13,22.13,0,0,1,132.7,87.3Z"/></svg>