<svg id="Capa_1" data-name="Capa 1" xmlns="http://www.w3.org/2000/svg" viewBox="0 0 213 213"><defs><style>.cls-1{fill:#ad58f9;}</style></defs><title>user</title><path class="cls-1" d="M106.5,213A105.86,105.86,0,0,1,32,182.56l-3.49-3.43,1-4.79a78.65,78.65,0,0,1,154.12,0l1,4.79L181,182.56A105.86,105.86,0,0,1,106.5,213ZM48.26,173.13a88.48,88.48,0,0,0,116.48,0,60.66,60.66,0,0,0-116.48,0Z"/><path class="cls-1" d="M106.5,128.4a43.83,43.83,0,1,1,43.82-43.83A43.87,43.87,0,0,1,106.5,128.4Zm0-69.65a25.83,25.83,0,1,0,25.82,25.82A25.85,25.85,0,0,0,106.5,58.75Z"/><path class="cls-1" d="M106.5,213A106.5,106.5,0,1,1,213,106.5,106.51,106.51,0,0,1,106.5,213Zm0-195A88.49,88.49,0,1,0,195,106.5,88.6,88.6,0,0,0,106.5,18Z"/></svg>